<svg width="40" height="36" viewBox="0 0 40 36" fill="none" xmlns="http://www.w3.org/2000/svg">
<path d="M5.45242 34.5476C5.45242 34.5476 5.40542 35.4407 6.29849 35.4407C7.37957 35.4407 16.3572 35.4407 16.3572 35.4407V27.168C16.3572 27.168 16.2162 25.8049 17.5323 25.8049H21.7156C23.2668 25.8049 23.1728 27.168 23.1728 27.168V35.3937C23.1728 35.3937 31.6804 35.3937 33.0435 35.3937C34.1716 35.3937 34.1246 34.2656 34.1246 34.2656V19.0364L20.2115 6.67451L5.45242 19.0364V34.5476Z" fill="white"/>
<path d="M0 17.9083C0 17.9083 1.2691 20.2115 3.9953 17.9083L20.3055 4.08931L35.6287 17.8143C38.7779 20.1175 40 17.8143 40 17.8143L20.3055 0L0 17.9083Z" fill="white"/>
<path d="M35.2527 4.04231H31.3044L31.3514 8.83667L35.2527 12.1739V4.04231Z" fill="white"/>
</svg>
