<svg width="41" height="38" viewBox="0 0 41 38" fill="none" xmlns="http://www.w3.org/2000/svg">
<path d="M7.42043 15.857L15.1371 14.7506C15.9811 14.631 16.7045 14.1226 17.0964 13.375L20.5629 6.55676C20.6834 6.31752 20.9246 6.28762 21.015 6.28762C21.1054 6.28762 21.3466 6.31752 21.4672 6.55676L24.8733 13.375C25.2652 14.1226 25.9886 14.631 26.8326 14.7506L34.5493 15.857C34.8206 15.8869 34.911 16.0963 34.9412 16.186C34.9713 16.2757 35.0014 16.4551 34.8206 16.6345L29.2441 21.9276C28.6111 22.5257 28.3398 23.363 28.4905 24.2004L29.8168 31.6765C29.847 31.9157 29.7264 32.0353 29.636 32.0951C29.5455 32.1549 29.3647 32.2746 29.0934 32.125L22.1906 28.5963C21.437 28.2076 20.5327 28.2076 19.7791 28.5963L12.8763 32.125C12.6352 32.2447 12.4242 32.125 12.3338 32.0951C12.2433 32.0353 12.1228 31.8858 12.1529 31.6765L13.4792 24.2004C13.6299 23.363 13.3586 22.5257 12.7256 21.9276L7.14914 16.6345C6.96829 16.4551 6.99843 16.2757 7.02857 16.186C7.05872 16.0963 7.14914 15.8869 7.42043 15.857Z" fill="white"/>
<path d="M1.60269 16.425C0.396967 15.2587 1.06011 13.1953 2.74813 12.9561L13.027 11.4609C13.6901 11.3712 14.2628 10.9525 14.5643 10.3544L19.146 1.14384C19.8996 -0.381281 22.0699 -0.381281 22.8235 1.14384L27.4354 10.3843C27.7368 10.9824 28.3096 11.4011 28.9727 11.4908L39.2515 12.986C40.9094 13.2252 41.6027 15.2587 40.3668 16.425L32.9215 23.6021C32.4392 24.0805 32.2282 24.7384 32.3186 25.3963L34.097 35.5937C34.3985 37.2684 32.62 38.5244 31.1129 37.7469L21.9192 32.9621C21.3163 32.6631 20.623 32.6631 20.0202 32.9621L10.8265 37.7469C9.31935 38.5244 7.57104 37.2684 7.84233 35.5937L9.62078 25.4262C9.74135 24.7683 9.50021 24.0805 9.01792 23.632L1.60269 16.425ZM11.2787 23.4226C11.3992 23.5124 11.4294 23.6619 11.3992 23.8114L10.0729 31.2875C9.89207 32.2444 10.2839 33.2014 11.0677 33.7696C11.8815 34.3677 12.9365 34.4275 13.8107 33.9789L20.7135 30.4502C20.8642 30.3605 21.045 30.3605 21.1958 30.4502L28.0986 33.9789C28.4904 34.1882 28.8823 34.2779 29.3043 34.2779C29.8469 34.2779 30.3894 34.0985 30.8416 33.7696C31.6253 33.2014 32.0172 32.2444 31.8363 31.2875L30.51 23.8114C30.4799 23.6619 30.5402 23.5124 30.6306 23.4226L36.2975 18.1296C37.0209 17.4418 37.2621 16.4549 36.9607 15.5279C36.6592 14.6008 35.8454 13.913 34.8506 13.7635L27.134 12.687C26.9833 12.657 26.8325 12.5673 26.7723 12.4178L23.3058 5.5996C22.8536 4.73237 21.9795 4.19409 20.9848 4.19409C19.99 4.19409 19.1159 4.73237 18.6637 5.5996L15.1973 12.4178C15.137 12.5673 14.9863 12.657 14.8356 12.687L7.11889 13.7934C6.12417 13.9429 5.3103 14.6008 5.00887 15.5578C4.70744 16.4848 4.97873 17.4717 5.67203 18.1595L11.2787 23.4226Z" fill="white"/>
</svg>
