<svg width="85" height="101" viewBox="0 0 85 101" fill="none" xmlns="http://www.w3.org/2000/svg">
<path d="M43.8411 55.8451C43.1072 55.1627 41.9782 55.1627 41.3008 55.8451C40.6234 56.5275 40.6234 57.6648 41.3008 58.404C41.9782 59.0864 43.1072 59.0864 43.8411 58.404C44.575 57.7217 44.575 56.5843 43.8411 55.8451Z" fill="#660033"/>
<path d="M42.5995 19.6219C22.1075 19.6219 5.45415 36.3972 5.45415 57.0961C5.45415 77.7951 22.1075 94.5703 42.6559 94.5703C63.2044 94.5703 79.8577 77.7951 79.8577 57.0961C79.8013 36.3972 63.148 19.6788 42.5995 19.6219ZM40.8495 23.2045C40.8495 22.2377 41.6398 21.4416 42.5995 21.4416C43.5592 21.4416 44.3495 22.2377 44.3495 23.2045V30.3695C44.3495 31.3362 43.5592 32.1323 42.5995 32.1323C41.6398 32.1323 40.8495 31.3362 40.8495 30.3695V23.2045ZM16.0671 58.859H8.95417C7.99449 58.859 7.20416 58.0628 7.20416 57.0961C7.20416 56.1294 7.99449 55.3333 8.95417 55.3333H16.0671C17.0268 55.3333 17.8171 56.1294 17.8171 57.0961C17.8171 58.0628 17.0268 58.859 16.0671 58.859ZM44.4059 90.9878C44.4059 91.9545 43.6156 92.7506 42.6559 92.7506C41.6963 92.7506 40.9059 91.9545 40.9059 90.9878V83.8228C40.9059 82.8561 41.6963 82.06 42.6559 82.06C43.6156 82.06 44.4059 82.8561 44.4059 83.8228V90.9878ZM47.9624 57.0961C47.9624 59.8257 45.9301 62.1003 43.2769 62.4415C40.5672 62.7827 38.0833 60.963 37.4624 58.3472C36.8414 55.6745 38.3091 53.0018 40.8495 52.092V39.2405C40.8495 38.2737 41.6398 37.4776 42.5995 37.4776C43.5592 37.4776 44.3495 38.2737 44.3495 39.2405V52.0351C44.5188 52.092 44.6882 52.1489 44.8576 52.2626L64.3335 32.6441C65.0109 31.9617 66.1399 31.9617 66.8173 32.6441C67.4948 33.3265 67.4948 34.4638 66.8173 35.1462L47.3979 54.8215C47.7366 55.5039 47.9624 56.3 47.9624 57.0961ZM76.3013 58.859H69.1883C68.2286 58.859 67.4383 58.0628 67.4383 57.0961C67.4383 56.1294 68.2286 55.3333 69.1883 55.3333H76.3013C77.2609 55.3333 78.0513 56.1294 78.0513 57.0961C78.0513 58.0628 77.2609 58.859 76.3013 58.859Z" fill="#660033"/>
<path d="M46.0429 14.4472C45.0832 14.3903 44.3493 13.5374 44.4058 12.5138C44.4058 12.5138 44.4058 12.5138 44.4058 12.4569V5.34877C44.4058 4.38206 45.1961 3.58595 46.1558 3.58595H47.9058C48.3574 3.58595 48.809 3.41535 49.1478 3.07416C49.4865 2.73297 49.7123 2.27805 49.7123 1.82313C49.7123 0.856416 48.922 0.0603027 47.9623 0.0603027H37.2929C36.8413 0.0603027 36.3896 0.230898 36.0509 0.57209C35.7122 0.913281 35.4864 1.3682 35.4864 1.82313C35.4864 2.78983 36.2767 3.58595 37.2364 3.58595H38.9864C39.9461 3.58595 40.7364 4.38206 40.7364 5.34877V12.5138C40.7929 13.4805 40.059 14.3335 39.0993 14.4472C31.8735 15.0159 24.8735 17.4611 18.8331 21.5554C18.7767 21.6122 18.6637 21.6122 18.6073 21.6691C18.5508 21.726 18.4944 21.726 18.4379 21.726C18.2686 21.7828 18.0428 21.8397 17.817 21.8397C17.5912 21.8397 17.4218 21.7828 17.2524 21.726C17.196 21.726 17.196 21.726 17.1395 21.6691C16.9702 21.6122 16.8008 21.4985 16.6315 21.3279C16.6315 21.3279 16.6315 21.3279 16.575 21.3279L12.454 17.1767C12.3976 17.1199 12.3411 17.0061 12.2847 16.9493C12.1718 16.8355 12.1153 16.7218 12.0589 16.6081C12.0589 16.5512 12.0024 16.4375 12.0024 16.3806C11.946 16.2669 11.946 16.0963 11.946 15.9826C11.946 15.812 12.0024 15.6982 12.0024 15.5845C12.0024 15.5276 12.0024 15.4139 12.0589 15.3571C12.1153 15.2433 12.1718 15.1296 12.2847 15.0727C12.3411 14.959 12.3976 14.9021 12.454 14.7884C13.1315 14.106 13.1315 12.9687 12.454 12.2863C12.1153 11.9451 11.6637 11.7745 11.2121 11.7745C10.7605 11.7745 10.3089 11.9451 9.97016 12.2863L4.94594 17.3473C4.26852 18.0297 4.26852 19.167 4.94594 19.8494C5.28465 20.1906 5.73627 20.3612 6.18788 20.3612C6.6395 20.3612 7.09111 20.1906 7.42983 19.8494C7.59918 19.6788 7.76854 19.5651 7.93789 19.5082C8.33306 19.3376 8.78467 19.2808 9.17983 19.4514C9.46209 19.5082 9.6879 19.6788 9.91371 19.8494L13.4702 23.4319C13.5266 23.4888 13.5831 23.6025 13.6395 23.7162C13.696 23.83 13.7524 23.9437 13.8089 24.0006C13.8653 24.1143 13.8653 24.228 13.8653 24.3418C13.9218 24.4555 13.9218 24.5692 13.9218 24.683C13.9218 24.7967 13.8653 24.9104 13.8653 25.0241C13.8653 25.1379 13.8089 25.2516 13.8089 25.3653C13.7524 25.4791 13.696 25.5359 13.6395 25.6497C13.5831 25.7634 13.5266 25.8203 13.4702 25.934C-1.20731 39.7522 -4.25571 62.0434 6.13143 79.3873C16.5186 96.7312 37.5187 104.351 56.4865 97.641C75.4543 90.9878 87.1963 71.8242 84.656 51.7508C82.2286 31.5636 66.0269 16.0394 46.0429 14.4472ZM42.5993 98.1528C20.075 98.1528 1.84109 79.7854 1.84109 57.0961C1.84109 34.4069 20.075 16.0394 42.5993 16.0394C65.1236 16.0394 83.3576 34.4069 83.3576 57.0961C83.3576 79.7285 65.1236 98.096 42.5993 98.1528Z" fill="#660033"/>
</svg>
