<svg width="100" height="82" viewBox="0 0 100 82" fill="none" xmlns="http://www.w3.org/2000/svg">
<path d="M15.3846 23.7389H0V58.039H15.3846L44.4725 79.6447C44.4725 79.6447 49.7688 84.1004 49.7688 79.4766C49.7688 74.8528 49.7688 5.83219 49.7688 1.62874C49.7688 -1.98622 45.061 1.54467 45.061 1.54467L15.3846 23.7389Z" fill="#660033"/>
<path d="M65.3941 21.9039C64.1728 20.6908 62.1371 20.6908 60.9158 21.9039C59.6944 23.1171 59.6944 25.139 60.9158 26.3521C64.987 30.3959 67.0226 35.6529 67.0226 40.9772C67.0226 46.3016 64.987 51.5585 60.9158 55.6023C59.6944 56.8155 59.6944 58.8374 60.9158 60.0505C61.5265 60.6571 62.3407 60.9941 63.155 60.9941C63.9692 60.9941 64.7834 60.7245 65.3941 60.0505C70.6868 54.7936 73.3331 47.8517 73.3331 40.9772C73.3331 34.0354 70.6868 27.1609 65.3941 21.9039Z" fill="#660033"/>
<path d="M75.1459 11.9057C73.9808 10.6902 72.0391 10.6902 70.874 11.9057C69.709 13.1213 69.709 15.1471 70.874 16.3627C77.4113 23.1832 80.6475 32.0295 80.6475 40.9434C80.6475 49.8573 77.4113 58.7712 70.874 65.5917C69.709 66.8072 69.709 68.8331 70.874 70.0487C71.4566 70.6564 72.2333 70.9941 73.01 70.9941C73.7867 70.9941 74.5634 70.6564 75.1459 70.0487C82.8481 62.0126 86.6669 51.4105 86.6669 40.9434C86.6669 30.4088 82.8481 19.9417 75.1459 11.9057Z" fill="#660033"/>
<path d="M82.4546 1.902C81.1442 0.691411 78.9601 0.691411 77.6497 1.902C76.3392 3.1126 76.3392 5.13025 77.6497 6.34084C87.9877 15.8911 93.1567 28.4005 93.1567 40.91C93.1567 53.4867 87.9877 65.9962 77.6497 75.6136C76.3392 76.8242 76.3392 78.8419 77.6497 80.0525C78.3049 80.6578 79.1785 80.9941 80.0522 80.9941C80.9258 80.9941 81.7994 80.725 82.4546 80.0525C94.1031 69.2244 100 55.1008 100 40.91C100 26.7864 94.1031 12.6628 82.4546 1.902Z" fill="#660033"/>
</svg>
