<svg width="194" height="27" viewBox="0 0 194 27" fill="none" xmlns="http://www.w3.org/2000/svg">
<path d="M49 26H0L24.5 0L49 26ZM13.3075 13.1309L16.6442 16.6702L19.981 13.1309L16.6442 9.58115L13.3075 13.1309ZM16.6442 25.0052L19.981 21.466L16.6442 17.9162L13.3075 21.466L16.6442 25.0052ZM32.4083 25.0052L35.745 21.466L32.4083 17.9162L29.019 21.466L32.4083 25.0052ZM28.4673 5.40314C28.4473 5.43762 28.4207 5.46941 28.3885 5.49738C27.3507 6.6178 26.2997 7.73822 25.2357 8.84817C25.1437 8.94241 25.2357 9.00524 25.2357 9.08901L28.3097 12.356L28.4542 12.4921L31.7909 8.96335L28.4673 5.40314ZM8.78847 25.0052L8.91984 24.8691L11.9938 21.6126C12.0428 21.5717 12.0702 21.5173 12.0702 21.4607C12.0702 21.4042 12.0428 21.3498 11.9938 21.3089C11.0611 20.3456 10.1547 19.3613 9.23512 18.3874L8.78847 17.9162L5.45174 21.466L8.78847 25.0052ZM17.2354 8.95288L20.5721 12.4921L20.6772 12.3979L23.8169 9.06806C23.922 8.95288 23.8169 8.89005 23.8169 8.80628L20.7429 5.56021L20.6115 5.42408L17.2354 8.95288ZM17.2354 17.3298L20.5721 20.8691L20.7429 20.7016C21.7413 19.6545 22.7528 18.6073 23.7643 17.4869C23.7926 17.4663 23.8152 17.4412 23.8307 17.4133C23.8461 17.3853 23.8541 17.3551 23.8541 17.3246C23.8541 17.2941 23.8461 17.2639 23.8307 17.2359C23.8152 17.208 23.7926 17.1829 23.7643 17.1623C22.8185 16.1675 21.8727 15.1728 20.9399 14.1675L20.5721 13.7906L17.2354 17.3298ZM32.9995 17.3298L36.3362 20.8691L39.6729 17.3298L36.3362 13.7906L32.9995 17.3298ZM28.4673 13.7801V13.8534L25.3013 17.2147C25.1962 17.3089 25.2357 17.3717 25.3013 17.4555L28.244 20.5969C28.3228 20.6911 28.4147 20.7853 28.5198 20.8901L31.8566 17.3508L28.4673 13.7801ZM12.7295 20.8482C12.7453 20.8175 12.7675 20.7892 12.7952 20.7644L15.9611 17.4031C16.0531 17.2984 15.9611 17.2461 15.9611 17.1623L12.8477 13.8953C12.8069 13.8484 12.7583 13.8061 12.7032 13.7696L9.37962 17.2984L12.7295 20.8482ZM32.3558 16.6597L35.6925 13.1204L32.3558 9.59162L29.019 13.1309L32.3558 16.6597ZM24.4737 8.28272L27.8105 4.74346L24.5263 1.27749H24.4606L21.2552 4.71204C21.2354 4.73712 21.2249 4.76616 21.2249 4.79581C21.2249 4.82546 21.2354 4.8545 21.2552 4.87958L24.4737 8.28272ZM24.4737 16.6597L27.8105 13.1204L24.5 9.58115L21.1633 13.1309L24.4737 16.6597ZM24.4737 25.0366L27.8105 21.4974L24.4737 17.9476L21.1633 21.466L24.4737 25.0366ZM40.2378 25.0366L43.5745 21.4974L40.2509 17.9791H40.1853L36.9668 21.3613C36.8617 21.4764 36.9668 21.5288 36.9668 21.6021L39.5941 24.4398L40.2378 25.0366ZM1.89169 25.2356H7.88204L4.91314 22.0942L1.89169 25.2356ZM41.1705 25.2356H47.1083L44.1394 22.0942L41.1705 25.2356ZM23.5542 25.2356L20.5721 22.0942L17.5901 25.2356H23.5542ZM33.3147 25.2356H39.2525L36.2836 22.0942L33.3147 25.2356ZM31.3968 25.2356L28.4279 22.0942L25.459 25.2356H31.3968ZM15.6327 25.2356L12.6638 22.0942L9.69491 25.2356H15.6327Z" fill="white"/>
<path d="M76.26 25.72H76.4C76.5493 25.72 76.68 25.6733 76.792 25.58C76.904 25.468 76.9973 25.3373 77.072 25.188C77.1653 25.0387 77.2307 24.88 77.268 24.712C77.324 24.544 77.352 24.3853 77.352 24.236V9.256C77.352 9.12533 77.324 8.976 77.268 8.808C77.2307 8.64 77.1653 8.48133 77.072 8.332C76.9973 8.18267 76.904 8.06133 76.792 7.968C76.68 7.856 76.5493 7.8 76.4 7.8H76.26V7.52H80.292V7.8H80.152C80.0027 7.8 79.872 7.856 79.76 7.968C79.648 8.06133 79.5547 8.18267 79.48 8.332C79.4053 8.48133 79.34 8.64 79.284 8.808C79.2467 8.976 79.228 9.12533 79.228 9.256V24.964H85.36C85.7147 24.964 86.0227 24.88 86.284 24.712C86.5453 24.544 86.76 24.3387 86.928 24.096C87.1147 23.8347 87.2453 23.564 87.32 23.284C87.4133 22.9853 87.46 22.7147 87.46 22.472H87.74V26H76.26V25.72Z" fill="white"/>
<path d="M102.563 7.24C104.019 7.24 105.326 7.50133 106.483 8.024C107.641 8.528 108.621 9.21867 109.423 10.096C110.245 10.9547 110.87 11.9627 111.299 13.12C111.747 14.2587 111.971 15.4533 111.971 16.704C111.971 18.104 111.71 19.392 111.187 20.568C110.683 21.744 109.983 22.752 109.087 23.592C108.191 24.432 107.146 25.0947 105.951 25.58C104.775 26.0467 103.515 26.28 102.171 26.28C100.734 26.28 99.4365 26.0187 98.2792 25.496C97.1405 24.9733 96.1699 24.2827 95.3672 23.424C94.5832 22.5653 93.9765 21.576 93.5472 20.456C93.1179 19.336 92.9032 18.1693 92.9032 16.956C92.9032 15.7613 93.1179 14.5853 93.5472 13.428C93.9765 12.252 94.6019 11.2067 95.4232 10.292C96.2632 9.37733 97.2805 8.64 98.4752 8.08C99.6699 7.52 101.033 7.24 102.563 7.24ZM102.535 25.3C103.786 25.244 104.878 24.964 105.811 24.46C106.763 23.9373 107.557 23.284 108.191 22.5C108.826 21.6973 109.293 20.82 109.591 19.868C109.909 18.916 110.067 17.9733 110.067 17.04C110.067 16.0133 109.881 14.9773 109.507 13.932C109.134 12.8867 108.602 11.944 107.911 11.104C107.221 10.2453 106.39 9.55467 105.419 9.032C104.467 8.49067 103.394 8.22 102.199 8.22C101.042 8.22 100.006 8.48133 99.0912 9.004C98.1765 9.508 97.3925 10.1613 96.7392 10.964C96.1045 11.7667 95.6192 12.6627 95.2832 13.652C94.9472 14.6413 94.7792 15.612 94.7792 16.564C94.7792 17.5907 94.9752 18.6267 95.3672 19.672C95.7592 20.6987 96.3005 21.632 96.9912 22.472C97.6819 23.312 98.4939 23.9933 99.4272 24.516C100.379 25.0387 101.415 25.3 102.535 25.3Z" fill="white"/>
<path d="M119.428 7.52H123.404V7.8H123.264C123.115 7.8 122.984 7.856 122.872 7.968C122.76 8.06133 122.657 8.18267 122.564 8.332C122.489 8.48133 122.433 8.64 122.396 8.808C122.359 8.976 122.34 9.12533 122.34 9.256V20.316C122.34 21.044 122.415 21.716 122.564 22.332C122.713 22.948 122.965 23.48 123.32 23.928C123.675 24.376 124.141 24.7307 124.72 24.992C125.299 25.2347 126.008 25.356 126.848 25.356C127.781 25.356 128.528 25.2067 129.088 24.908C129.648 24.6093 130.077 24.2267 130.376 23.76C130.675 23.2747 130.871 22.7333 130.964 22.136C131.057 21.5387 131.104 20.9507 131.104 20.372V9.256C131.104 9.12533 131.085 8.976 131.048 8.808C131.011 8.64 130.945 8.48133 130.852 8.332C130.777 8.18267 130.684 8.06133 130.572 7.968C130.46 7.856 130.339 7.8 130.208 7.8H130.068V7.52H133.12V7.8H132.98C132.831 7.8 132.7 7.856 132.588 7.968C132.495 8.06133 132.401 8.18267 132.308 8.332C132.233 8.48133 132.177 8.64 132.14 8.808C132.103 8.976 132.084 9.12533 132.084 9.256V20.288C132.084 21.5013 131.935 22.5 131.636 23.284C131.337 24.0493 130.927 24.656 130.404 25.104C129.881 25.552 129.265 25.86 128.556 26.028C127.865 26.196 127.128 26.28 126.344 26.28C125.504 26.28 124.72 26.1867 123.992 26C123.283 25.832 122.667 25.524 122.144 25.076C121.621 24.628 121.211 24.0213 120.912 23.256C120.613 22.472 120.464 21.492 120.464 20.316V9.256C120.464 9.12533 120.445 8.976 120.408 8.808C120.371 8.64 120.305 8.48133 120.212 8.332C120.137 8.18267 120.044 8.06133 119.932 7.968C119.82 7.856 119.699 7.8 119.568 7.8H119.428V7.52Z" fill="white"/>
<path d="M143.076 8.5C143.076 8.612 143.104 8.752 143.16 8.92L148.088 22.192L153.016 8.78C153.034 8.74267 153.053 8.68667 153.072 8.612C153.09 8.53733 153.1 8.48133 153.1 8.444C153.1 8.22 153.006 8.06133 152.82 7.968C152.652 7.856 152.493 7.8 152.344 7.8V7.52H155.396V7.8C155.116 7.8 154.854 7.87467 154.612 8.024C154.388 8.17333 154.21 8.42533 154.08 8.78L147.668 26.336L141.116 8.864C141.004 8.584 140.836 8.34133 140.612 8.136C140.406 7.93067 140.145 7.81867 139.828 7.8V7.52H143.804V7.8C143.636 7.8 143.468 7.86533 143.3 7.996C143.15 8.108 143.076 8.276 143.076 8.5Z" fill="white"/>
<path d="M166.076 25.72H166.216V26H162.268V25.72H162.408C162.538 25.72 162.66 25.664 162.772 25.552C162.884 25.44 162.977 25.3093 163.052 25.16C163.145 25.0107 163.21 24.852 163.248 24.684C163.285 24.4973 163.304 24.3293 163.304 24.18V9.256C163.304 9.12533 163.285 8.976 163.248 8.808C163.21 8.64 163.145 8.48133 163.052 8.332C162.977 8.18267 162.884 8.06133 162.772 7.968C162.66 7.856 162.538 7.8 162.408 7.8H162.268V7.52H167.14C169.006 7.52 170.444 7.884 171.452 8.612C172.478 9.34 172.992 10.4133 172.992 11.832C172.992 12.5413 172.87 13.1667 172.628 13.708C172.404 14.2307 172.096 14.688 171.704 15.08C171.312 15.4533 170.845 15.7613 170.304 16.004C169.781 16.228 169.221 16.396 168.624 16.508L170.64 19.588C171.125 20.3347 171.62 21.072 172.124 21.8C172.628 22.5093 173.122 23.2467 173.608 24.012C173.738 24.1987 173.878 24.3947 174.028 24.6C174.196 24.8053 174.364 24.992 174.532 25.16C174.718 25.328 174.905 25.468 175.092 25.58C175.297 25.6733 175.502 25.72 175.708 25.72V26H174.504C173.757 26 173.141 25.8227 172.656 25.468C172.189 25.0947 171.797 24.6653 171.48 24.18C170.64 22.948 169.8 21.6973 168.96 20.428C168.138 19.1587 167.317 17.908 166.496 16.676C166.29 16.6573 166.066 16.6387 165.824 16.62C165.6 16.5827 165.385 16.5453 165.18 16.508V24.18C165.18 24.3293 165.198 24.4973 165.236 24.684C165.273 24.852 165.329 25.0107 165.404 25.16C165.497 25.3093 165.59 25.44 165.684 25.552C165.796 25.664 165.926 25.72 166.076 25.72ZM165.18 8.472V15.584H165.32C165.469 15.6027 165.702 15.6213 166.02 15.64C166.356 15.64 166.766 15.64 167.252 15.64C167.644 15.64 168.054 15.584 168.484 15.472C168.932 15.3413 169.342 15.136 169.716 14.856C170.108 14.5573 170.425 14.1747 170.668 13.708C170.929 13.2413 171.06 12.6533 171.06 11.944C171.06 11.2347 170.92 10.656 170.64 10.208C170.378 9.76 170.005 9.40533 169.52 9.144C169.053 8.88266 168.484 8.70533 167.812 8.612C167.14 8.51867 166.402 8.472 165.6 8.472H165.18Z" fill="white"/>
<path d="M182.389 25.72H182.529C182.678 25.72 182.809 25.6733 182.921 25.58C183.033 25.468 183.126 25.3373 183.201 25.188C183.294 25.0387 183.36 24.88 183.397 24.712C183.453 24.544 183.481 24.3853 183.481 24.236V9.256C183.481 9.12533 183.453 8.976 183.397 8.808C183.36 8.64 183.294 8.48133 183.201 8.332C183.126 8.18267 183.033 8.06133 182.921 7.968C182.809 7.856 182.678 7.8 182.529 7.8H182.389V7.52H193.169V10.124H192.889C192.852 9.69467 192.684 9.32133 192.385 9.004C192.086 8.668 191.62 8.5 190.985 8.5H185.357V15.584H190.005C190.434 15.584 190.789 15.4533 191.069 15.192C191.368 14.9307 191.517 14.6227 191.517 14.268H191.797V17.768H191.517C191.517 17.432 191.377 17.1427 191.097 16.9C190.817 16.6573 190.453 16.536 190.005 16.536H185.357V25.02H191.489C191.844 25.02 192.152 24.936 192.413 24.768C192.674 24.6 192.889 24.404 193.057 24.18C193.244 23.9373 193.374 23.6853 193.449 23.424C193.542 23.144 193.589 22.9107 193.589 22.724H193.869V26H182.389V25.72Z" fill="white"/>
</svg>
